<svg xmlns="http://www.w3.org/2000/svg" id="Layer_1" viewBox="0 0 369.5 271.2" class="" width="76" height="56"><defs><style>.cls-1{fill:#0094ff;}.cls-2{fill:#fff;}</style></defs><path class="cls-1" d="m125.24,28.17c88.61,57.8,208.86,2.1,231.76,65.55,22.89,63.44-76.39,143.79-148.85,164.21-73.67,20.76-137.38-9.84-171.81-67.84C-16.12,101.71,10.62-46.6,125.24,28.17"></path><path class="cls-2" d="m99.46,178.88c-.73-.81-1.6-1.45-2.61-1.91-1.01-.46-2.13-.68-3.37-.68-1.35,0-2.56.29-3.65.88-1.06.57-1.92,1.45-2.57,2.61v-9.16h-3.81v23.78h3.03v-3.7c.09.21.17.42.28.61.64,1.19,1.52,2.11,2.64,2.74,1.12.63,2.39.94,3.83.94,1.28,0,2.44-.24,3.49-.72,1.04-.48,1.94-1.13,2.69-1.97.75-.84,1.32-1.8,1.71-2.88.39-1.09.59-2.26.59-3.52v-.65c0-1.26-.19-2.43-.57-3.52-.38-1.09-.93-2.04-1.66-2.85Zm-2.25,9.87c-.44.92-1.07,1.64-1.87,2.17-.8.52-1.74.78-2.8.78-.93,0-1.81-.21-2.64-.62-.83-.41-1.49-1.01-2-1.81-.51-.79-.77-1.74-.77-2.85v-1.4c0-1.15.25-2.13.75-2.95.5-.81,1.16-1.44,1.99-1.87s1.72-.65,2.67-.65c1.06,0,1.99.25,2.78.75.79.5,1.42,1.2,1.87,2.1.46.9.68,1.96.68,3.18s-.22,2.25-.67,3.18Z"></path><path class="cls-2" d="m112.95,190.92h-.69l-4.67-14.07h-3.88l5.96,17.17h2.42l-.34,1.21c-.2.67-.45,1.21-.75,1.61-.31.4-.7.68-1.17.85-.48.16-1.05.24-1.73.24h-2.9v3.36h2.61c1.33,0,2.46-.17,3.4-.52.94-.35,1.73-.9,2.35-1.66.62-.76,1.1-1.75,1.45-2.96l5.54-19.28h-3.68l-3.92,14.07Z"></path><path class="cls-2" d="m147.1,189.96c-1.3.94-2.91,1.42-4.82,1.42-1.32,0-2.49-.23-3.5-.68-1.01-.46-1.85-1.1-2.52-1.92-.67-.82-1.18-1.78-1.52-2.85-.34-1.07-.51-2.22-.51-3.44,0-1.28.17-2.46.51-3.53.34-1.07.83-2.01,1.48-2.82.65-.8,1.47-1.43,2.46-1.89.99-.46,2.12-.68,3.4-.68s2.35.21,3.34.62c.99.41,1.8,1.03,2.44,1.84.64.81,1.05,1.83,1.22,3.05h3.94c-.17-1.85-.72-3.45-1.65-4.8-.92-1.36-2.17-2.42-3.73-3.18-1.56-.76-3.42-1.14-5.57-1.14s-3.85.36-5.36,1.08c-1.51.72-2.74,1.66-3.68,2.83-.94,1.17-1.65,2.48-2.1,3.91-.46,1.43-.68,2.88-.68,4.33v.72c0,1.32.22,2.7.67,4.12.44,1.42,1.14,2.75,2.08,3.97.94,1.23,2.18,2.22,3.71,2.96,1.53.75,3.38,1.12,5.55,1.12s4.15-.41,5.73-1.22c1.58-.81,2.83-1.91,3.75-3.29.91-1.38,1.48-2.9,1.69-4.58h-3.97c-.28,1.76-1.07,3.11-2.38,4.06Z"></path><path class="cls-2" d="m157.83,170.61c-.38.42-.57.95-.57,1.58s.19,1.19.57,1.6c.38.41.96.62,1.75.62s1.4-.21,1.78-.62c.38-.41.57-.95.57-1.6s-.19-1.16-.57-1.58c-.38-.42-.97-.64-1.78-.64s-1.37.21-1.75.64Z"></path><polygon class="cls-2" points="155.6 176.85 155.6 179.78 158.17 179.78 158.17 194.4 161.98 194.4 161.98 179.78 161.98 176.85 158.17 176.85 155.6 176.85"></polygon><path class="cls-2" d="m171.75,171.73h-3.61v5.11h-2.9v2.83h2.9v8.44c0,1.63.26,2.92.76,3.88.51.96,1.27,1.63,2.26,2.02,1,.39,2.23.59,3.68.59h2.64v-3.32h-2.93c-.89,0-1.58-.24-2.07-.73-.49-.49-.73-1.19-.73-2.1v-8.76h5.73v-2.83h-5.73v-5.11Z"></path><path class="cls-2" d="m191.72,177.3c-1.17-.46-2.65-.68-4.43-.68-.56,0-1.16.01-1.78.03-.62.02-1.22.05-1.79.08-.58.03-1.1.07-1.58.11v3.29c.54-.04,1.17-.08,1.87-.11.7-.03,1.43-.06,2.17-.08.74-.02,1.41-.03,2.02-.03,1.11,0,1.94.28,2.51.85.56.56.85,1.39.85,2.48v.33h-4.01c-1.54,0-2.87.21-3.97.62-1.11.41-1.96,1.03-2.56,1.86-.6.83-.9,1.87-.9,3.13s.26,2.22.78,3.08c.52.86,1.26,1.51,2.21,1.95.95.44,2.07.67,3.36.67s2.29-.22,3.14-.67c.86-.44,1.53-1.09,2.02-1.92.22-.38.4-.8.54-1.26v3.39h3.03v-10.98c0-1.65-.29-2.97-.86-3.96-.58-.99-1.45-1.71-2.62-2.17Zm-2.34,14.32c-.61.25-1.25.37-1.92.37-1.15,0-2.03-.27-2.64-.8-.61-.53-.91-1.24-.91-2.13s.3-1.61.91-2.17c.61-.55,1.49-.83,2.64-.83h4.1v1.82c-.04,1.06-.27,1.89-.67,2.48-.4.59-.91,1.01-1.52,1.25Z"></path><path class="cls-2" d="m213.71,179.47c-.63-1.01-1.43-1.79-2.39-2.31-1.07-.58-2.29-.86-3.63-.86-1.26,0-2.4.23-3.44.7-1.03.47-1.92,1.11-2.66,1.94-.74.83-1.31,1.79-1.71,2.88-.4,1.1-.6,2.27-.6,3.53v.62c0,1.28.21,2.46.62,3.55.41,1.09,1,2.04,1.77,2.87.77.83,1.67,1.47,2.7,1.92,1.03.46,2.18.68,3.44.68,1.32,0,2.54-.29,3.65-.86,1.11-.58,2.01-1.47,2.72-2.69.12-.2.21-.42.31-.64v3.61h3.03v-23.78h-3.81v8.84Zm.13,6.73c0,1.13-.24,2.11-.73,2.95-.49.84-1.13,1.47-1.92,1.91-.79.44-1.68.65-2.65.65-1.04,0-1.98-.24-2.8-.73-.83-.49-1.47-1.19-1.94-2.1-.47-.91-.7-1.99-.7-3.22s.23-2.28.68-3.19c.46-.91,1.09-1.62,1.91-2.13.81-.51,1.75-.77,2.82-.77.95,0,1.83.21,2.64.62.8.41,1.45,1.01,1.96,1.79.5.78.75,1.73.75,2.83v1.4Z"></path><path class="cls-2" d="m235.3,177.5c-1.26-.82-2.83-1.24-4.72-1.24-1.45,0-2.73.26-3.83.77-1.1.51-2,1.19-2.72,2.05-.72.86-1.25,1.82-1.61,2.9-.36,1.08-.54,2.19-.54,3.34v.62c0,1.13.18,2.23.54,3.31.36,1.07.9,2.04,1.61,2.9.72.86,1.64,1.55,2.77,2.07s2.45.78,3.97.78c1.41,0,2.67-.24,3.78-.72,1.11-.48,2.02-1.16,2.75-2.05.73-.89,1.21-1.93,1.45-3.13h-3.55c-.17.72-.65,1.34-1.43,1.87-.78.53-1.78.8-3,.8s-2.21-.27-3-.8c-.78-.53-1.36-1.26-1.73-2.18-.28-.69-.45-1.46-.52-2.3h13.55v-1.53c0-1.52-.31-2.94-.94-4.25-.63-1.31-1.57-2.38-2.83-3.21Zm-7.56,2.77c.76-.52,1.7-.78,2.83-.78s1.99.23,2.7.7c.72.47,1.26,1.13,1.63,1.99.22.52.37,1.11.46,1.74h-9.74c.09-.54.23-1.04.42-1.5.37-.91.93-1.63,1.69-2.15Z"></path><polygon class="cls-2" points="241.07 170.63 241.07 173.56 243.38 173.56 243.38 194.4 247.22 194.4 247.22 173.56 247.22 170.63 243.38 170.63 241.07 170.63"></polygon><path class="cls-2" d="m268.78,184.96c0-1.52-.31-2.94-.94-4.25-.63-1.31-1.57-2.38-2.83-3.21-1.26-.82-2.83-1.24-4.72-1.24-1.45,0-2.73.26-3.83.77-1.1.51-2,1.19-2.72,2.05-.72.86-1.25,1.82-1.61,2.9-.36,1.08-.54,2.19-.54,3.34v.62c0,1.13.18,2.23.54,3.31.36,1.07.9,2.04,1.61,2.9.72.86,1.64,1.55,2.77,2.07,1.13.52,2.45.78,3.97.78,1.41,0,2.67-.24,3.78-.72,1.11-.48,2.02-1.16,2.75-2.05.73-.89,1.21-1.93,1.45-3.13h-3.55c-.17.72-.65,1.34-1.43,1.87-.78.53-1.78.8-3,.8s-2.21-.27-3-.8c-.78-.53-1.36-1.26-1.73-2.18-.28-.69-.45-1.46-.52-2.3h13.55v-1.53Zm-11.34-4.69c.76-.52,1.7-.78,2.83-.78s1.99.23,2.7.7c.72.47,1.26,1.13,1.63,1.99.22.52.37,1.11.46,1.74h-9.74c.09-.54.23-1.04.42-1.5.37-.91.93-1.63,1.69-2.15Z"></path><path class="cls-2" d="m169.25,157.66h10.89s0-13.47,0-13.47h-10.9c-5.68,0-10.31-4.62-10.31-10.31v-53.44s-13.48,0-13.48,0v53.44c.02,13.12,10.69,23.78,23.8,23.78Z"></path><path class="cls-2" d="m196.64,97.01c4.55,0,8.23-3.69,8.23-8.23,0-4.54-3.69-8.23-8.23-8.22-4.55,0-8.23,3.69-8.23,8.23,0,4.55,3.69,8.23,8.23,8.23Z"></path><polygon class="cls-2" points="119.79 127.18 137.34 102.14 120.89 102.15 96.94 136.31 96.93 80.51 83.45 80.51 83.47 155.51 83.47 157.68 96.95 157.68 98.41 157.68 111.57 138.91 124.74 157.67 141.19 157.67 119.79 127.18"></polygon><polygon class="cls-2" points="268.75 157.64 249.18 129.75 268.56 102.11 252.11 102.11 240.95 118.03 229.78 102.12 213.33 102.12 232.72 129.76 213.17 157.65 229.63 157.65 240.95 141.48 252.29 157.64 268.75 157.64"></polygon><polygon class="cls-2" points="190.49 115.41 190.5 157.66 203.97 157.65 203.96 102.13 172.52 102.13 172.53 115.42 190.49 115.41"></polygon></svg>