<svg width="64" height="25" viewBox="0 0 64 25" fill="none" xmlns="http://www.w3.org/2000/svg">
<path d="M55.4961 3.78526C53.4187 3.78526 51.5377 4.64397 50.1657 5.97907L51.7181 4.20807H46.658L42.6831 8.92863V4.20807H38.5702V14.3037H31.1963V12.7607H35.5915V9.95718H31.1963V8.41494H37.1523V4.13922H31.1963L10.8395 4.17116L7.56308 14.022H4.6787V0H0V18.5094H5.98024L3.86972 24.9619H8.09076L10.2013 18.5094H20.2252L16.2846 8.41475H20.2786V18.5094H24.6738V8.41475H27.0369L27.0403 18.4769L42.6805 18.4745L42.6769 13.6496L46.7525 18.5094H51.6645L50.1784 16.6993C51.5511 18.0251 53.4271 18.8322 55.4961 18.8322C59.6951 18.8322 63.0987 15.4605 63.0987 11.3082C63.0985 7.15623 59.6949 3.78526 55.4961 3.78526ZM12.0716 14.022L13.2249 10.4653L14.4213 14.022H12.0716ZM49.1316 15.4101L45.3544 11.205L49.2972 6.95207C48.4142 8.18003 47.7258 9.6802 47.7258 11.303C47.7258 12.8182 48.3491 14.2293 49.1316 15.4101ZM55.4961 15.0726C53.3912 15.0726 51.685 13.3837 51.685 11.3032C51.685 9.22108 53.3912 7.53262 55.4961 7.53262C57.6016 7.53262 59.3072 9.22108 59.3072 11.3032C59.3072 13.3837 57.6016 15.0726 55.4961 15.0726Z" fill="#626270"/>
<path d="M13.4902 21.4576H14.2717V24.2653H16.0402V24.9679H13.4902V21.4576Z" fill="#626270"/>
<path d="M21.6875 20.6144H23.2609V21.0677H21.6875V20.6144ZM22.0824 21.429H22.8651V24.9385H22.0824V21.429Z" fill="#626270"/>
<path d="M28.707 24.3524L30.659 22.1064H28.7672V21.4291H31.6624V22.0158L29.7102 24.2622H31.6624V24.9383H28.707V24.3524Z" fill="#626270"/>
<path d="M38.2842 21.4291H37.5039V24.9385H38.2842V21.4291Z" fill="#626270"/>
<path d="M44.0283 21.4291H44.7492L46.4103 23.59V21.4291H47.1814V24.9383H46.5179L44.7988 22.7062V24.9383H44.0283V21.4291Z" fill="#626270"/>
<path d="M51.623 23.1933V23.1832C51.623 22.1858 52.4095 21.3685 53.4832 21.3685C54.1222 21.3685 54.5072 21.5386 54.8778 21.8499L54.3862 22.4358C54.1126 22.211 53.8684 22.0812 53.4585 22.0812C52.8907 22.0812 52.438 22.5764 52.438 23.1741V23.1834C52.438 23.8254 52.8853 24.2971 53.5135 24.2971C53.797 24.2971 54.051 24.2268 54.2492 24.0859V23.5858H53.4627V22.9185H55.004V24.4435C54.6392 24.7476 54.1378 25 53.4882 25C52.3829 24.9996 51.623 24.2312 51.623 23.1933Z" fill="#626270"/>
<path d="M59.6211 24.4272L60.0818 23.8808C60.4014 24.1405 60.737 24.3064 61.1425 24.3064C61.4609 24.3064 61.6541 24.1808 61.6541 23.977V23.9661C61.6541 23.7701 61.5322 23.6705 60.9389 23.5193C60.2252 23.3384 59.7625 23.1431 59.7625 22.4467V22.4358C59.7625 21.7995 60.2808 21.3795 61.0045 21.3795C61.5227 21.3795 61.9643 21.5388 62.3229 21.8255L61.9186 22.4072C61.6042 22.191 61.2944 22.0612 60.9959 22.0612C60.6967 22.0612 60.5394 22.1961 60.5394 22.3661V22.3771C60.5394 22.6076 60.6903 22.6824 61.304 22.8374C62.0237 23.0235 62.43 23.2798 62.43 23.8907V23.9C62.43 24.5985 61.8917 24.9889 61.1279 24.9889C60.5904 24.9887 60.047 24.8044 59.6211 24.4272Z" fill="#626270"/>
</svg>