<svg width="114" height="19" viewBox="0 0 114 19" fill="none" xmlns="http://www.w3.org/2000/svg">
<g clip-path="url(#clip0_3_203)">
<path d="M20.1863 18.7121C20.1863 18.8766 20.0656 19 19.9048 19C14.8783 18.8355 10.8973 14.6407 10.8973 9.5V0.287879C10.8973 0.123376 11.018 0 11.1788 0C16.1651 0.164502 20.1863 4.35929 20.1863 9.5V18.7121ZM5.22751 19C8.08256 19 10.455 16.5736 10.455 13.6537C10.455 10.7337 8.08256 8.34847 5.22751 8.34847C2.33227 8.34847 0 10.7337 0 13.6537C0 16.5736 2.37249 19 5.22751 19ZM36.3916 6.90909C37.0751 6.90909 37.6381 6.33335 37.6381 5.63419C37.6381 4.93508 37.0751 4.35929 36.3916 4.35929C35.7079 4.35929 35.145 4.93508 35.145 5.63419C35.145 6.33335 35.7079 6.90909 36.3916 6.90909ZM97.4327 8.34847C97.3522 9.08874 97.0708 9.62337 96.6686 9.95237C96.1863 9.66452 95.382 9.41774 94.5776 9.41774C93.8538 9.41774 93.5321 9.58226 93.5321 9.95237C93.5321 10.3225 93.8538 10.4459 94.9798 10.6926C96.3872 10.9394 97.5937 11.4329 97.5937 12.9957C97.5937 14.5173 96.4677 15.4632 94.3365 15.4632C92.7282 15.4632 91.6424 14.9286 91.1597 14.5584C91.2805 13.8182 91.6022 13.2835 92.0446 13.0368C92.5672 13.3658 93.291 13.7771 94.3767 13.7771C95.0603 13.7771 95.3015 13.5303 95.3015 13.2013C95.3015 12.8312 94.9395 12.6255 93.7334 12.4199C92.5672 12.1732 91.3208 11.7619 91.3208 10.1169C91.3208 8.59525 92.6879 7.73162 94.4573 7.73162C96.0253 7.64936 96.9504 8.01947 97.4327 8.34847ZM89.0285 15.2576C88.6666 15.2576 88.2644 15.2165 87.9025 15.1753V11.0627C87.9025 10.158 87.5007 9.66452 86.6561 9.66452C86.0933 9.66452 85.7314 9.87011 85.4496 10.0757C85.4496 10.2403 85.4898 10.3636 85.4898 10.5282V15.1342C85.1279 15.1753 84.7257 15.2165 84.3638 15.2165C84.0023 15.2165 83.6001 15.1753 83.2382 15.1342V11.0216C83.2382 10.1169 82.7958 9.62337 81.9512 9.62337C81.4689 9.62337 81.0667 9.74674 80.7853 9.91126V15.0931C80.4234 15.1342 80.0212 15.1753 79.6593 15.1753C79.2974 15.1753 78.9355 15.1342 78.5333 15.0931V8.842C79.0562 8.38962 80.3831 7.6082 82.1525 7.6082C83.1577 7.6082 83.9621 7.85499 84.4846 8.30736C85.0478 7.93725 85.892 7.6082 86.857 7.6082C89.109 7.6082 90.1545 8.842 90.1545 10.5693V15.1753C89.7926 15.2576 89.3904 15.2576 89.0285 15.2576ZM73.5067 15.4221C71.0538 15.4221 70.0888 14.2706 70.0888 12.461V7.93725C70.4507 7.85499 70.8529 7.85499 71.2148 7.85499C71.5767 7.85499 71.9789 7.8961 72.3408 7.93725V11.9675C72.3408 12.9545 72.6222 13.4481 73.708 13.4481C74.1504 13.4481 74.5124 13.3658 74.834 13.2013V7.93725C75.1959 7.85499 75.5977 7.85499 75.9596 7.85499C76.3215 7.85499 76.7237 7.8961 77.0856 7.93725V14.5996C76.4826 14.9286 75.1959 15.4221 73.5067 15.4221ZM66.5904 15.1753C66.2285 15.2576 65.8666 15.2987 65.5047 15.2987C65.1427 15.2987 64.7808 15.2576 64.3786 15.1753C62.9314 12.9134 62.2478 10.7749 61.6443 7.97836C61.9257 7.8961 62.6496 7.81384 63.2531 7.81384C63.5344 7.81384 63.8561 7.81384 64.0972 7.85499C64.4994 9.95237 65.0626 11.9264 65.4241 12.8723C65.4644 12.9957 65.4644 13.0779 65.5047 13.2424C65.5449 13.1191 65.5852 12.9957 65.5852 12.8723C65.9874 11.8442 66.5099 9.95237 66.9121 7.85499C67.1536 7.81384 67.4753 7.81384 67.7969 7.81384C68.3195 7.81384 68.8827 7.8961 69.2845 7.97836C68.6411 10.816 67.877 12.9957 66.5904 15.1753ZM56.4169 12.0909C56.5376 13.1191 57.1004 13.5714 58.1862 13.5714C59.0711 13.5714 59.7546 13.2013 60.2772 12.8312C60.7599 13.2013 61.0413 13.8182 61.0815 14.3939C60.4382 14.8875 59.4728 15.4221 57.9048 15.4221C55.693 15.4221 54.0847 14.0238 54.0847 11.5563C54.0847 9.25326 55.693 7.64936 57.8243 7.64936C59.8347 7.64936 61.2023 8.96537 61.2023 11.0216C61.2023 11.3918 61.2023 11.7208 61.1218 12.0909H56.4169ZM59.1512 10.816C59.1512 10.1169 58.8295 9.45889 57.9048 9.41774C57.0602 9.41774 56.5376 9.99353 56.4571 10.816H59.1512ZM49.782 15.4221C47.1685 15.4221 45.6 14.0238 45.6 11.5563C45.6 9.171 47.3693 7.64936 49.5811 7.64936C50.0634 7.64936 50.4253 7.69047 50.747 7.77273V5.38745C51.1089 5.30519 51.511 5.30519 51.873 5.30519C52.2349 5.30519 52.6371 5.34634 52.999 5.38745V14.6818C52.2349 15.0931 51.0288 15.4221 49.782 15.4221ZM50.747 9.829C50.4253 9.66452 50.0634 9.62337 49.7417 9.62337C48.656 9.62337 47.8919 10.3636 47.8919 11.5563C47.8919 12.7078 48.656 13.4892 49.7417 13.4892C50.1036 13.4892 50.4656 13.4481 50.7872 13.3658V9.829H50.747ZM38.6836 15.1753C38.6434 15.0108 38.6032 14.8052 38.6032 14.6407C38.6032 14.0238 38.8445 13.6948 39.0455 13.4069L41.7799 10.2403L42.182 9.78789H38.8042C38.764 9.58226 38.6836 9.171 38.6836 8.842C38.6836 8.47184 38.764 8.14284 38.8042 7.93725H44.7554C44.7956 8.06062 44.8359 8.30736 44.8359 8.47184C44.8359 9.04763 44.6753 9.5 44.4337 9.829L41.9005 12.9545L41.5386 13.3658H44.9164C44.9969 13.5714 45.077 13.9004 45.077 14.2706C45.077 14.6818 44.9969 15.0108 44.9164 15.2165H38.6836V15.1753ZM36.3513 15.2576C35.9894 15.2576 35.6275 15.2165 35.2254 15.1753V7.85499C35.5873 7.77273 35.9492 7.77273 36.3513 7.77273C36.7132 7.77273 37.0751 7.81384 37.4773 7.85499V15.1753C37.1153 15.2576 36.7534 15.2576 36.3513 15.2576ZM30.2392 15.4221C28.1883 15.4221 27.0222 14.6407 27.0222 13.0368C27.0222 11.5152 28.309 10.6926 30.1185 10.7337C30.6815 10.7337 31.2042 10.816 31.6064 10.9394V10.6515C31.6064 10.0346 31.2042 9.58226 30.1185 9.58226C29.2741 9.58226 28.5503 9.91126 28.1883 10.1991C27.7058 9.91126 27.3439 9.41774 27.2233 8.71863C27.6254 8.34847 28.7513 7.64936 30.3196 7.64936C32.4106 7.64936 33.818 8.5541 33.818 10.8572V14.6818C32.8127 15.1342 31.5661 15.4221 30.2392 15.4221ZM30.5609 13.8182C30.9227 13.8182 31.2847 13.7771 31.6466 13.6537V12.2965C31.2847 12.1732 30.8826 12.132 30.4 12.132C29.6762 12.132 29.2741 12.3788 29.2741 12.9134C29.2741 13.4892 29.7164 13.8182 30.5609 13.8182ZM99.8454 15.4632C100.529 15.4632 101.092 14.8875 101.092 14.1883C101.092 13.4892 100.529 12.9134 99.8454 12.9134C99.1618 12.9134 98.599 13.4892 98.599 14.1883C98.599 14.8875 99.1618 15.4632 99.8454 15.4632ZM104.631 15.3809C105.475 15.3809 106.078 15.1342 106.44 14.8052C106.4 14.0649 106.159 13.4892 105.717 13.1191C105.556 13.2424 105.395 13.3247 105.113 13.3247C104.751 13.3247 104.51 13.0779 104.51 12.5844V5.38745C104.148 5.30519 103.786 5.30519 103.384 5.30519C103.022 5.30519 102.62 5.30519 102.258 5.38745V12.9134C102.258 14.7229 103.264 15.3809 104.631 15.3809ZM112.512 7.81384C112.231 7.81384 111.909 7.81384 111.628 7.85499C111.225 9.95237 110.702 11.8442 110.301 12.8723C110.26 12.9957 110.22 13.0779 110.22 13.2424C110.18 13.1191 110.14 12.9957 110.14 12.8723C109.778 11.9264 109.215 9.95237 108.813 7.85499C108.571 7.81384 108.25 7.81384 107.968 7.81384C107.365 7.81384 106.641 7.8961 106.36 7.97836C106.963 10.7337 107.647 12.8723 109.094 15.1753C109.456 15.2576 109.818 15.2987 110.22 15.2987C110.582 15.2987 110.944 15.2576 111.306 15.1753C112.593 12.9957 113.357 10.816 114 7.97836C113.598 7.8961 113.035 7.81384 112.512 7.81384Z" fill="#626270"/>
</g>
<defs>
<clipPath id="clip0_3_203">
<rect width="114" height="19" fill="white"/>
</clipPath>
</defs>
</svg>
