<svg width="71" height="19" viewBox="0 0 71 19" fill="none" xmlns="http://www.w3.org/2000/svg">
<g clip-path="url(#clip0_622_1542)">
<path fill-rule="evenodd" clip-rule="evenodd" d="M25.4834 0.535217H22.5612C21.8048 0.535217 21.1914 1.16323 21.1914 1.93765V18.7324H24.1136C24.87 18.7324 25.4834 18.1044 25.4834 17.33V0.535217Z" fill="#626270"/>
<path fill-rule="evenodd" clip-rule="evenodd" d="M19.5823 0.535217H15.5964C15.0784 0.535217 14.6043 0.828168 14.3698 1.29336L9.79115 10.3813L5.21251 1.29336C4.97842 0.828168 4.50433 0.535217 3.98636 0.535217H0L9.08204 18.5616C9.37657 19.1461 10.2062 19.1461 10.5007 18.5616L19.5823 0.535217Z" fill="#626270"/>
<path fill-rule="evenodd" clip-rule="evenodd" d="M40.1966 14.4948H35.0099L37.4393 9.62626H37.4374L41.5101 1.46293C41.7222 1.03795 41.4178 0.535217 40.9487 0.535217H28.4346V3.36973C28.4346 4.14478 29.0535 4.77284 29.8172 4.77284H35.0034L32.5741 9.64181H32.5764L28.5037 17.8052C28.2917 18.2297 28.596 18.7324 29.0651 18.7324H41.5788V15.8984C41.5788 15.1233 40.9599 14.4948 40.1966 14.4948Z" fill="#626270"/>
<path fill-rule="evenodd" clip-rule="evenodd" d="M45.6025 18.7324H48.5247C49.2811 18.7324 49.8944 18.1044 49.8944 17.33V0.535217H46.9723C46.2159 0.535217 45.6025 1.16323 45.6025 1.93765V18.7324Z" fill="#626270"/>
<path fill-rule="evenodd" clip-rule="evenodd" d="M51.2363 18.4648H55.2223C55.7407 18.4648 56.2147 18.1718 56.4488 17.7066L61.0274 8.61869L65.606 17.7066C65.8406 18.1718 66.3147 18.4648 66.8326 18.4648H70.8185L61.7371 0.438381C61.4425 -0.146127 60.6129 -0.146127 60.3183 0.438381L51.2363 18.4648Z" fill="#626270"/>
</g>
<defs>
<clipPath id="clip0_622_1542">
<rect width="70.8182" height="19" fill="white"/>
</clipPath>
</defs>
</svg>