<svg width="50" height="25" viewBox="0 0 50 25" fill="none" xmlns="http://www.w3.org/2000/svg">
<path d="M50 0H0V25H50V0Z" fill="#626270"/>
<path d="M9.0006 12.6167C9.0006 11.2317 9.66021 10.4745 10.6657 10.4745C11.0357 10.4745 11.3414 10.5873 11.7275 10.7806C11.8643 10.8451 11.9769 10.8209 12.1539 10.394L12.2826 10.0961C12.4113 9.74163 12.4193 9.58866 12.2585 9.516C11.7999 9.23423 11.084 9.07328 10.4566 9.07328C8.68688 9.07328 7.35156 10.4826 7.35156 12.6167C7.35156 14.7511 8.69492 16.1764 10.4566 16.1764C11.084 16.1764 11.816 15.9993 12.2745 15.7255C12.4274 15.653 12.4193 15.4999 12.2906 15.1457L12.1619 14.8316C11.9769 14.3966 11.8723 14.3725 11.7275 14.445C11.3495 14.6383 11.0277 14.7511 10.6496 14.7511C9.66021 14.7511 9.0006 14.0021 9.0006 12.6167ZM30.0761 15.8463C30.0761 16.0396 30.0037 16.088 29.4808 16.088H29.4246C28.8776 16.088 28.7972 16.0556 28.7489 15.9188C28.7247 15.8463 28.7006 15.7255 28.6845 15.6369C28.3949 15.9913 28.0409 16.1764 27.502 16.1764C26.1989 16.1764 25.4107 15.202 25.4107 13.6476C25.4107 11.9645 26.2793 10.9657 27.5824 10.9657C27.9445 10.9657 28.2823 11.0787 28.5398 11.288V9.10543C28.5398 8.95247 28.5557 8.89597 29.2797 8.89597H29.328C30.0037 8.89597 30.0761 8.95247 30.0761 9.10543V15.8463ZM28.5398 12.5202C28.3466 12.3269 28.1134 12.2141 27.8398 12.2141C27.2607 12.2141 26.9872 12.7215 26.9872 13.6558C26.9872 14.1872 27.0999 14.5336 27.2607 14.7107C27.4054 14.888 27.6307 14.9524 27.8398 14.9524C28.1134 14.9524 28.3226 14.8881 28.4191 14.7591C28.4996 14.6624 28.5398 14.5175 28.5398 14.1792V12.5202ZM37.911 15.8865C37.911 16.0316 37.8467 16.088 37.1629 16.088H37.1146C36.3907 16.088 36.3666 16.0235 36.3666 15.8865V9.11343C36.3666 8.96028 36.3828 8.90415 37.1146 8.90415H37.1629C37.8386 8.90415 37.911 8.96028 37.911 9.11343V15.8865ZM32.5054 14.0825C32.5939 14.6946 32.972 14.9925 33.5592 14.9925C34.0257 14.9925 34.4521 14.888 34.9508 14.6624C35.0554 14.6221 35.152 14.6624 35.2565 15.0089L35.3369 15.202C35.4496 15.5564 35.4416 15.6369 35.3209 15.7014C34.7257 16.0396 34.1062 16.1764 33.4145 16.1764C31.8861 16.1764 30.9288 15.2343 30.9288 13.6237C30.9288 12.061 31.8057 10.9739 33.326 10.9739C34.8142 10.9739 35.5863 12.045 35.5863 13.535C35.5863 14.0262 35.5461 14.0825 35.3691 14.0825H32.5054ZM34.05 13.1241C34.0257 12.6087 33.8247 12.1578 33.3098 12.1578C32.8675 12.1578 32.5537 12.4879 32.4893 13.1241H34.05ZM40.3082 14.0825C40.3967 14.6946 40.7667 14.9925 41.362 14.9925C41.8204 14.9925 42.2549 14.888 42.7536 14.6624C42.8582 14.6221 42.9467 14.6624 43.0593 15.0089L43.1316 15.202C43.2444 15.5564 43.2363 15.6369 43.1235 15.7014C42.5283 16.0396 41.9009 16.1764 41.2092 16.1764C39.6808 16.1764 38.7235 15.2343 38.7235 13.6237C38.7235 12.061 39.6004 10.9739 41.1126 10.9739C42.6089 10.9739 43.381 12.045 43.381 13.535C43.381 14.0262 43.3327 14.0825 43.1638 14.0825H40.3082ZM41.8526 13.1241C41.8285 12.6087 41.6113 12.1578 41.1126 12.1578C40.6701 12.1578 40.3484 12.4879 40.2921 13.1241H41.8526ZM22.957 12.5605C22.7962 12.3511 22.5549 12.2301 22.2894 12.2223C21.7184 12.2223 21.4367 12.7297 21.4367 13.6396C21.4367 14.4128 21.638 14.9765 22.2735 14.9765C22.5147 14.9765 22.6836 14.9202 22.8043 14.7912C22.9168 14.6706 22.9651 14.5095 22.9651 14.147C22.957 14.155 22.957 12.5605 22.957 12.5605ZM24.5097 15.8463C24.5097 16.0396 24.4373 16.088 23.9144 16.088H23.8421C23.2951 16.088 23.2145 16.0556 23.1664 15.9188C23.1421 15.8463 23.1181 15.7255 23.1019 15.6369C22.8124 15.9913 22.4584 16.1764 21.9194 16.1764C20.6646 16.1764 19.8681 15.2263 19.8681 13.6718C19.8681 11.9403 20.8576 10.9739 22.032 10.9739C22.5147 10.9739 22.9249 11.1831 23.1502 11.4571L23.1743 11.2396C23.1904 11.1348 23.2145 11.0625 23.7857 11.0625H23.85C24.4373 11.0625 24.5177 11.1027 24.5177 11.2638L24.5097 15.8463ZM17.3101 9.61283C17.8893 9.61283 17.9215 9.62082 17.9215 9.80612V11.0705H18.919C19.0558 11.0705 19.096 11.0947 19.096 11.5699V11.6342C19.096 12.1095 19.0558 12.1336 18.919 12.1336H17.9215V14.4046C17.9215 14.7912 17.9858 14.9845 18.3318 14.9845C18.5167 14.9845 18.6697 14.9442 18.8225 14.896C18.9833 14.8236 19.0478 14.912 19.1603 15.3068L19.1845 15.4034C19.3052 15.8382 19.265 15.8785 19.112 15.9512C18.7984 16.0959 18.388 16.1764 18.0019 16.1764C16.7712 16.1764 16.4253 15.5564 16.4253 14.4771V12.1416H15.8461C15.7013 12.1416 15.6691 12.1175 15.6691 11.6422V11.5779C15.6691 11.1027 15.7013 11.0787 15.8461 11.0787H16.4977C16.562 10.6759 16.6907 10.1039 16.7631 9.81411C16.8194 9.64498 16.8436 9.61283 17.3101 9.61283ZM14.0925 11.0705C14.7682 11.0705 14.8245 11.1348 14.8245 11.28V15.8785C14.8245 16.0316 14.7602 16.08 14.0925 16.08H14.0523C13.3122 16.08 13.2881 16.0316 13.2881 15.8785V11.28C13.2881 11.1268 13.3042 11.0705 14.0523 11.0705H14.0925ZM14.0523 8.82349C14.5349 8.82349 14.8889 9.20208 14.8889 9.63699C14.8889 10.0637 14.5349 10.4423 14.0523 10.4423C13.5696 10.4423 13.2077 10.0637 13.2077 9.63699C13.2157 9.21007 13.5696 8.82349 14.0523 8.82349Z" fill="white"/>
</svg>