<svg width="18" height="18" viewBox="0 0 18 18" fill="none" xmlns="http://www.w3.org/2000/svg">
<g clip-path="url(#clip0_117_2)">
<path d="M0 12H18V18H0V12Z" fill="#1EB53A"/>
<path d="M0 0H18V6H0V0Z" fill="#0099B5"/>
<path d="M0 5.76001H18V12.24H0V5.76001Z" fill="#CE1126"/>
<path d="M0 6.12H18V11.88H0V6.12Z" fill="white"/>
<path d="M3.78 5.03997C4.6747 5.03997 5.4 4.07291 5.4 2.87997C5.4 1.68704 4.6747 0.719971 3.78 0.719971C2.8853 0.719971 2.16 1.68704 2.16 2.87997C2.16 4.07291 2.8853 5.03997 3.78 5.03997Z" fill="white"/>
<path d="M4.32 5.03997C5.2147 5.03997 5.94 4.07291 5.94 2.87997C5.94 1.68704 5.2147 0.719971 4.32 0.719971C3.4253 0.719971 2.7 1.68704 2.7 2.87997C2.7 4.07291 3.4253 5.03997 4.32 5.03997Z" fill="#0099B5"/>
<path d="M7.34344 4.17676L7.24084 4.58716L7.39744 4.65916" fill="white"/>
<path d="M7.34344 4.17676L7.44604 4.58716L7.28944 4.65916" fill="white"/>
<path d="M7.65051 4.44113L7.32667 4.51643L7.32729 4.69287" fill="white"/>
<path d="M7.64954 4.45731L7.3932 4.72444L7.2908 4.60808" fill="white"/>
<path d="M7.03734 4.45718L7.29368 4.72431L7.39608 4.60795" fill="white"/>
<path d="M7.03637 4.44101L7.3602 4.51631L7.35959 4.69274" fill="white"/>
<path d="M7.52965 4.95489L7.44145 4.54438L7.27753 4.62016" fill="white"/>
<path d="M7.53166 4.95185L7.26899 4.71504L7.37135 4.5257" fill="white"/>
<path d="M7.15195 4.96503L7.41647 4.69792L7.32499 4.5257" fill="white"/>
<path d="M7.15101 4.96185L7.25348 4.54741L7.40934 4.60006" fill="white"/>
<path d="M7.34344 2.44873L7.24084 2.85913L7.39744 2.93113" fill="white"/>
<path d="M7.34344 2.44873L7.44604 2.85913L7.28944 2.93113" fill="white"/>
<path d="M7.65051 2.7131L7.32667 2.7884L7.32729 2.96484" fill="white"/>
<path d="M7.64954 2.72928L7.3932 2.99641L7.2908 2.88005" fill="white"/>
<path d="M7.03734 2.72916L7.29368 2.99629L7.39608 2.87993" fill="white"/>
<path d="M7.03637 2.71298L7.3602 2.78828L7.35959 2.96472" fill="white"/>
<path d="M7.52965 3.22686L7.44145 2.81635L7.27753 2.89213" fill="white"/>
<path d="M7.53166 3.22382L7.26899 2.98701L7.37135 2.79767" fill="white"/>
<path d="M7.15195 3.237L7.41647 2.96989L7.32499 2.79767" fill="white"/>
<path d="M7.15101 3.23382L7.25348 2.81938L7.40934 2.87203" fill="white"/>
<path d="M7.34344 0.720703L7.24084 1.1311L7.39744 1.2031" fill="white"/>
<path d="M7.34344 0.720703L7.44604 1.1311L7.28944 1.2031" fill="white"/>
<path d="M7.65051 0.985077L7.32667 1.06037L7.32729 1.23681" fill="white"/>
<path d="M7.64954 1.00125L7.3932 1.26838L7.2908 1.15202" fill="white"/>
<path d="M7.03734 1.00113L7.29368 1.26826L7.39608 1.1519" fill="white"/>
<path d="M7.03637 0.984955L7.3602 1.06025L7.35959 1.23669" fill="white"/>
<path d="M7.52965 1.49883L7.44145 1.08833L7.27753 1.1641" fill="white"/>
<path d="M7.53166 1.49579L7.26899 1.25898L7.37135 1.06964" fill="white"/>
<path d="M7.15195 1.50897L7.41647 1.24187L7.32499 1.06964" fill="white"/>
<path d="M7.15101 1.5058L7.25348 1.09135L7.40934 1.14401" fill="white"/>
<path d="M8.63943 4.17676L8.53683 4.58716L8.69343 4.65916" fill="white"/>
<path d="M8.63943 4.17676L8.74203 4.58716L8.58543 4.65916" fill="white"/>
<path d="M8.9465 4.44113L8.62267 4.51643L8.62329 4.69287" fill="white"/>
<path d="M8.94554 4.45731L8.6892 4.72444L8.5868 4.60808" fill="white"/>
<path d="M8.33334 4.45718L8.58968 4.72431L8.69208 4.60795" fill="white"/>
<path d="M8.33237 4.44101L8.6562 4.51631L8.65558 4.69274" fill="white"/>
<path d="M8.82565 4.95489L8.73744 4.54438L8.57353 4.62016" fill="white"/>
<path d="M8.82765 4.95185L8.56499 4.71504L8.66735 4.5257" fill="white"/>
<path d="M8.44795 4.96503L8.71246 4.69792L8.62099 4.5257" fill="white"/>
<path d="M8.447 4.96185L8.54948 4.54741L8.70533 4.60006" fill="white"/>
<path d="M8.63943 2.44873L8.53683 2.85913L8.69343 2.93113" fill="white"/>
<path d="M8.63943 2.44873L8.74203 2.85913L8.58543 2.93113" fill="white"/>
<path d="M8.9465 2.7131L8.62267 2.7884L8.62329 2.96484" fill="white"/>
<path d="M8.94554 2.72928L8.6892 2.99641L8.5868 2.88005" fill="white"/>
<path d="M8.33334 2.72916L8.58968 2.99629L8.69208 2.87993" fill="white"/>
<path d="M8.33237 2.71298L8.6562 2.78828L8.65558 2.96472" fill="white"/>
<path d="M8.82565 3.22686L8.73744 2.81635L8.57353 2.89213" fill="white"/>
<path d="M8.82765 3.22382L8.56499 2.98701L8.66735 2.79767" fill="white"/>
<path d="M8.44795 3.237L8.71246 2.96989L8.62099 2.79767" fill="white"/>
<path d="M8.447 3.23382L8.54948 2.81938L8.70533 2.87203" fill="white"/>
<path d="M8.63943 0.720703L8.53683 1.1311L8.69343 1.2031" fill="white"/>
<path d="M8.63943 0.720703L8.74203 1.1311L8.58543 1.2031" fill="white"/>
<path d="M8.9465 0.985077L8.62267 1.06037L8.62329 1.23681" fill="white"/>
<path d="M8.94554 1.00125L8.6892 1.26838L8.5868 1.15202" fill="white"/>
<path d="M8.33334 1.00113L8.58968 1.26826L8.69208 1.1519" fill="white"/>
<path d="M8.33237 0.984955L8.6562 1.06025L8.65558 1.23669" fill="white"/>
<path d="M8.82565 1.49883L8.73744 1.08833L8.57353 1.1641" fill="white"/>
<path d="M8.82765 1.49579L8.56499 1.25898L8.66735 1.06964" fill="white"/>
<path d="M8.44795 1.50897L8.71246 1.24187L8.62099 1.06964" fill="white"/>
<path d="M8.447 1.5058L8.54948 1.09135L8.70533 1.14401" fill="white"/>
<path d="M9.93543 4.17676L9.83283 4.58716L9.98943 4.65916" fill="white"/>
<path d="M9.93543 4.17676L10.038 4.58716L9.88143 4.65916" fill="white"/>
<path d="M10.2425 4.44113L9.91867 4.51643L9.91928 4.69287" fill="white"/>
<path d="M10.2415 4.45731L9.9852 4.72444L9.8828 4.60808" fill="white"/>
<path d="M9.62933 4.45718L9.88567 4.72431L9.98807 4.60795" fill="white"/>
<path d="M9.62836 4.44101L9.9522 4.51631L9.95158 4.69274" fill="white"/>
<path d="M10.1216 4.95489L10.0334 4.54438L9.86952 4.62016" fill="white"/>
<path d="M10.1237 4.95185L9.86099 4.71504L9.96335 4.5257" fill="white"/>
<path d="M9.74394 4.96503L10.0085 4.69792L9.91699 4.5257" fill="white"/>
<path d="M9.743 4.96185L9.84547 4.54741L10.0013 4.60006" fill="white"/>
<path d="M9.93543 2.44873L9.83283 2.85913L9.98943 2.93113" fill="white"/>
<path d="M9.93543 2.44873L10.038 2.85913L9.88143 2.93113" fill="white"/>
<path d="M10.2425 2.7131L9.91867 2.7884L9.91928 2.96484" fill="white"/>
<path d="M10.2415 2.72928L9.9852 2.99641L9.8828 2.88005" fill="white"/>
<path d="M9.62933 2.72916L9.88567 2.99629L9.98807 2.87993" fill="white"/>
<path d="M9.62836 2.71298L9.9522 2.78828L9.95158 2.96472" fill="white"/>
<path d="M10.1216 3.22686L10.0334 2.81635L9.86952 2.89213" fill="white"/>
<path d="M10.1237 3.22382L9.86099 2.98701L9.96335 2.79767" fill="white"/>
<path d="M9.74394 3.237L10.0085 2.96989L9.91699 2.79767" fill="white"/>
<path d="M9.743 3.23382L9.84547 2.81938L10.0013 2.87203" fill="white"/>
<path d="M9.93543 0.720703L9.83283 1.1311L9.98943 1.2031" fill="white"/>
<path d="M9.93543 0.720703L10.038 1.1311L9.88143 1.2031" fill="white"/>
<path d="M10.2425 0.985077L9.91867 1.06037L9.91928 1.23681" fill="white"/>
<path d="M10.2415 1.00125L9.9852 1.26838L9.8828 1.15202" fill="white"/>
<path d="M9.62933 1.00113L9.88567 1.26826L9.98807 1.1519" fill="white"/>
<path d="M9.62836 0.984955L9.9522 1.06025L9.95158 1.23669" fill="white"/>
<path d="M10.1216 1.49883L10.0334 1.08833L9.86952 1.1641" fill="white"/>
<path d="M10.1237 1.49579L9.86099 1.25898L9.96335 1.06964" fill="white"/>
<path d="M9.74394 1.50897L10.0085 1.24187L9.91699 1.06964" fill="white"/>
<path d="M9.743 1.5058L9.84547 1.09135L10.0013 1.14401" fill="white"/>
<path d="M4.75143 4.17676L4.64883 4.58716L4.80543 4.65916" fill="white"/>
<path d="M4.75143 4.17676L4.85403 4.58716L4.69743 4.65916" fill="white"/>
<path d="M5.0585 4.44113L4.73467 4.51643L4.73529 4.69287" fill="white"/>
<path d="M5.05754 4.45731L4.8012 4.72444L4.6988 4.60808" fill="white"/>
<path d="M4.44534 4.45718L4.70168 4.72431L4.80407 4.60795" fill="white"/>
<path d="M4.44437 4.44101L4.7682 4.51631L4.76758 4.69274" fill="white"/>
<path d="M4.93765 4.95489L4.84944 4.54438L4.68553 4.62016" fill="white"/>
<path d="M4.93965 4.95185L4.67699 4.71504L4.77935 4.5257" fill="white"/>
<path d="M4.55995 4.96503L4.82446 4.69792L4.73299 4.5257" fill="white"/>
<path d="M4.559 4.96185L4.66148 4.54741L4.81733 4.60006" fill="white"/>
<path d="M6.04743 4.17676L5.94483 4.58716L6.10143 4.65916" fill="white"/>
<path d="M6.04743 4.17676L6.15003 4.58716L5.99343 4.65916" fill="white"/>
<path d="M6.3545 4.44113L6.03067 4.51643L6.03128 4.69287" fill="white"/>
<path d="M6.35354 4.45731L6.0972 4.72444L5.9948 4.60808" fill="white"/>
<path d="M5.74133 4.45718L5.99767 4.72431L6.10007 4.60795" fill="white"/>
<path d="M5.74036 4.44101L6.06419 4.51631L6.06358 4.69274" fill="white"/>
<path d="M6.23365 4.95489L6.14544 4.54438L5.98152 4.62016" fill="white"/>
<path d="M6.23565 4.95185L5.97299 4.71504L6.07535 4.5257" fill="white"/>
<path d="M5.85594 4.96503L6.12046 4.69792L6.02899 4.5257" fill="white"/>
<path d="M5.855 4.96185L5.95747 4.54741L6.11333 4.60006" fill="white"/>
<path d="M6.04743 2.44873L5.94483 2.85913L6.10143 2.93113" fill="white"/>
<path d="M6.04743 2.44873L6.15003 2.85913L5.99343 2.93113" fill="white"/>
<path d="M6.3545 2.7131L6.03067 2.7884L6.03128 2.96484" fill="white"/>
<path d="M6.35354 2.72928L6.0972 2.99641L5.9948 2.88005" fill="white"/>
<path d="M5.74133 2.72916L5.99767 2.99629L6.10007 2.87993" fill="white"/>
<path d="M5.74036 2.71298L6.06419 2.78828L6.06358 2.96472" fill="white"/>
<path d="M6.23365 3.22686L6.14544 2.81635L5.98152 2.89213" fill="white"/>
<path d="M6.23565 3.22382L5.97299 2.98701L6.07535 2.79767" fill="white"/>
<path d="M5.85594 3.237L6.12046 2.96989L6.02899 2.79767" fill="white"/>
<path d="M5.855 3.23382L5.95747 2.81938L6.11333 2.87203" fill="white"/>
</g>
<defs>
<clipPath id="clip0_117_2">
<rect width="18" height="18" rx="9" fill="white"/>
</clipPath>
</defs>
</svg>
